<svg width="24" height="24" viewBox="0 0 20 20" fill="none" xmlns="http://www.w3.org/2000/svg">
<path d="M3.75008 7.43778V14.2467C3.75008 14.7067 4.12341 15.08 4.58341 15.08H15.4167C15.8767 15.08 16.2501 14.7067 16.2501 14.2467V10C16.2501 9.77 16.4367 9.58334 16.6667 9.58334C16.8967 9.58334 17.0834 9.77 17.0834 10V14.2467C17.0834 15.1667 16.3356 15.9133 15.4167 15.9133H4.58341C3.66453 15.9133 2.91675 15.1667 2.91675 14.2467V5.75334C2.91675 4.83334 3.66453 4.08667 4.58341 4.08667H15.4167C16.3356 4.08667 17.0834 4.83334 17.0834 5.75334V7.02111C17.0834 7.22223 16.9401 7.39111 16.7501 7.43L16.6667 7.43778H3.75008ZM6.26008 11.7989C6.72119 11.7989 7.09341 12.1722 7.09341 12.6322C7.09341 13.0922 6.72119 13.4656 6.26008 13.4656C5.79897 13.4656 5.42675 13.0922 5.42675 12.6322C5.42675 12.1722 5.79897 11.7989 6.26008 11.7989ZM10.0001 11.7989C10.4612 11.7989 10.8334 12.1722 10.8334 12.6322C10.8334 13.0922 10.4612 13.4656 10.0001 13.4656C9.54008 13.4656 9.16675 13.0922 9.16675 12.6322C9.16675 12.1722 9.54008 11.7989 10.0001 11.7989ZM13.7401 11.7989C14.2012 11.7989 14.5734 12.1722 14.5734 12.6322C14.5734 13.0922 14.2012 13.4656 13.7401 13.4656C13.2801 13.4656 12.9067 13.0922 12.9067 12.6322C12.9067 12.1722 13.2801 11.7989 13.7401 11.7989ZM6.26008 9.16556C6.72119 9.16556 7.09341 9.54 7.09341 9.99889C7.09341 10.46 6.72119 10.8322 6.26008 10.8322C5.79897 10.8322 5.42675 10.46 5.42675 9.99889C5.42675 9.54 5.79897 9.16556 6.26008 9.16556ZM10.0001 9.16667C10.4612 9.16667 10.8334 9.54111 10.8334 10C10.8334 10.4611 10.4612 10.8333 10.0001 10.8333C9.54008 10.8333 9.16675 10.4611 9.16675 10C9.16675 9.54111 9.54008 9.16667 10.0001 9.16667ZM13.7401 9.16667C14.2012 9.16667 14.5734 9.54111 14.5734 10C14.5734 10.4611 14.2012 10.8333 13.7401 10.8333C13.2801 10.8333 12.9067 10.4611 12.9067 10C12.9067 9.54111 13.2801 9.16667 13.7401 9.16667ZM15.4167 4.92111H4.58341C4.12341 4.92111 3.75008 5.29445 3.75008 5.75445V6.60556H16.2501V5.75445C16.2501 5.29445 15.8767 4.92111 15.4167 4.92111Z" fill="#4D4D4D"/>
</svg>
