<svg width="56" height="74" viewBox="0 0 56 74" fill="none" xmlns="http://www.w3.org/2000/svg">
<path d="M17.5137 61.8193C17.0488 61.7555 16.6478 61.7236 16.3105 61.7236C15.4173 61.7236 14.9707 62.1429 14.9707 62.9814V63.6035H16.4746V64.834H14.9707V71H13.3096V64.834H12.1816V63.6035H13.3096V62.9404C13.3141 62.1064 13.5602 61.4684 14.0479 61.0264C14.54 60.5798 15.2327 60.3564 16.126 60.3564C16.682 60.3564 17.6982 60.4658 19.1748 60.6846V71H17.5137V61.8193ZM22.7773 71H21.1162V63.6035H22.7773V71ZM21.0137 61.6826C21.0137 61.4274 21.0934 61.2155 21.2529 61.0469C21.417 60.8783 21.6494 60.7939 21.9502 60.7939C22.251 60.7939 22.4834 60.8783 22.6475 61.0469C22.8115 61.2155 22.8936 61.4274 22.8936 61.6826C22.8936 61.9333 22.8115 62.1429 22.6475 62.3115C22.4834 62.4756 22.251 62.5576 21.9502 62.5576C21.6494 62.5576 21.417 62.4756 21.2529 62.3115C21.0934 62.1429 21.0137 61.9333 21.0137 61.6826ZM24.3018 67.2471C24.3018 66.0986 24.5706 65.1826 25.1084 64.499C25.6507 63.8109 26.3685 63.4668 27.2617 63.4668C28.1048 63.4668 28.7679 63.7607 29.251 64.3486L29.3262 63.6035H30.8232V70.7744C30.8232 71.7451 30.5202 72.5107 29.9141 73.0713C29.3125 73.6318 28.499 73.9121 27.4736 73.9121C26.9313 73.9121 26.4004 73.7982 25.8809 73.5703C25.3659 73.347 24.974 73.0531 24.7051 72.6885L25.4912 71.6904C26.0016 72.2965 26.6305 72.5996 27.3779 72.5996C27.9294 72.5996 28.3646 72.4492 28.6836 72.1484C29.0026 71.8522 29.1621 71.4147 29.1621 70.8359V70.3369C28.6836 70.8701 28.0456 71.1367 27.248 71.1367C26.3822 71.1367 25.6735 70.7926 25.1221 70.1045C24.5752 69.4163 24.3018 68.4639 24.3018 67.2471ZM25.9561 67.3906C25.9561 68.1335 26.1064 68.7191 26.4072 69.1475C26.7126 69.5713 27.1341 69.7832 27.6719 69.7832C28.3418 69.7832 28.8385 69.4961 29.1621 68.9219V65.668C28.8477 65.1074 28.3555 64.8271 27.6855 64.8271C27.1387 64.8271 26.7126 65.0436 26.4072 65.4766C26.1064 65.9095 25.9561 66.5475 25.9561 67.3906ZM34.1729 64.4102C34.7152 63.7812 35.401 63.4668 36.2305 63.4668C37.8073 63.4668 38.6071 64.3669 38.6299 66.167V71H36.9688V66.2285C36.9688 65.7181 36.8571 65.3581 36.6338 65.1484C36.415 64.9342 36.0915 64.8271 35.6631 64.8271C34.9977 64.8271 34.501 65.1234 34.1729 65.7158V71H32.5117V60.5H34.1729V64.4102ZM42.3965 61.8057V63.6035H43.7021V64.834H42.3965V68.9629C42.3965 69.2454 42.4512 69.4505 42.5605 69.5781C42.6745 69.7012 42.875 69.7627 43.1621 69.7627C43.3535 69.7627 43.5472 69.7399 43.7432 69.6943V70.9795C43.3649 71.0843 43.0003 71.1367 42.6494 71.1367C41.3734 71.1367 40.7354 70.4326 40.7354 69.0244V64.834H39.5186V63.6035H40.7354V61.8057H42.3965Z" fill="black"/>
<mask id="mask0" mask-type="alpha" maskUnits="userSpaceOnUse" x="0" y="0" width="56" height="56">
<path d="M0 0H56V56H0V0Z" fill="white"/>
</mask>
<g mask="url(#mask0)">
<path fill-rule="evenodd" clip-rule="evenodd" d="M56 28C56 12.535 43.464 0 28 0C12.536 0 0 12.535 0 28C0 43.464 12.536 56 28 56C43.464 56 56 43.464 56 28Z" fill="#1C476E"/>
<path d="M36.9 29.9331C36.9 25.0881 32.971 21.1591 28.127 21.1591H28.126C23.28 21.1591 19.353 25.0881 19.353 29.9331C19.353 34.7771 23.28 38.7051 28.126 38.7051H28.127C30.957 38.7051 33.474 37.3661 35.079 35.2861" stroke="#FEFEFE" stroke-width="1.5" stroke-linecap="round" stroke-linejoin="round"/>
<path fill-rule="evenodd" clip-rule="evenodd" d="M33.64 29.933C33.64 26.886 31.172 24.419 28.126 24.419H28.125C25.081 24.419 22.612 26.886 22.612 29.933H33.641H33.64ZM31.49 21.741L28.127 14L24.762 21.741H31.49ZM29.735 14H28.126H26.517H29.735ZM19.353 29.933H7.21704H19.353ZM8.82004 32.164C8.82004 33.398 9.81904 34.396 11.052 34.396C12.286 34.396 13.284 33.398 13.284 32.164C13.284 30.932 12.286 29.934 11.052 29.934C9.81904 29.934 8.82004 30.932 8.82004 32.164ZM36.899 29.933H49.037H36.899ZM47.432 32.164C47.432 33.398 46.433 34.396 45.202 34.396C43.966 34.396 42.968 33.398 42.968 32.164C42.968 30.932 43.966 29.934 45.201 29.934C46.433 29.934 47.431 30.932 47.431 32.164H47.432Z" stroke="#FEFEFE" stroke-width="1.5" stroke-linecap="round" stroke-linejoin="round"/>
</g>
</svg>
