<svg width="24" height="24" viewBox="0 0 24 24" fill="none" xmlns="http://www.w3.org/2000/svg">
<path opacity="0.2" fill-rule="evenodd" clip-rule="evenodd" d="M0 0H24V24H0V0Z" fill="white" fill-opacity="0.01"/>
<path d="M12 21C16.9706 21 21 16.9706 21 12C21 7.02944 16.9706 3 12 3C7.02944 3 3 7.02944 3 12C3 16.9706 7.02944 21 12 21Z" stroke="#4D4D4D"/>
<path d="M12.0265 13.7901L12.2596 16.5919L13.7994 15.7029L14.7086 12.2416M10.7448 14.5301L10.3646 14.7496C9.59988 15.1911 8.65303 15.1731 7.90487 14.7033L5.91943 13.4524L7.01322 12.8209L8.86779 12.8171L14.3697 9.6406C14.7204 9.4381 15.1192 9.33486 15.5251 9.34186L16.1825 9.35258C16.5162 9.35853 16.8218 9.53777 16.9893 9.82789C17.2513 10.2817 17.0962 10.8631 16.6415 11.1256L12.0265 13.7901L10.7448 14.5301Z" stroke="#4D4D4D" stroke-width="0.75" stroke-linecap="round" stroke-linejoin="round"/>
<path d="M10.7424 11.736L9.02441 10.5443L10.5651 9.65481L13.1318 10.3565" stroke="#4D4D4D" stroke-width="0.75" stroke-linecap="round" stroke-linejoin="round"/>
</svg>
