<svg width="670" height="1440" viewBox="0 0 670 1440" fill="none" xmlns="http://www.w3.org/2000/svg">
<g filter="url(#filter0_d)">
<rect x="5" y="2" width="660" height="1430" rx="8" fill="#F4F4F4"/>
</g>
<path d="M48.2089 685.5C47.3409 685.5 46.5739 685.365 45.8739 685.09C45.2439 684.842 44.7549 684.44 44.2259 683.978C43.8379 683.639 43.4869 683.264 43.1809 682.865C43.0409 682.682 43.0759 682.421 43.2589 682.281C43.4419 682.141 43.7029 682.175 43.8439 682.358C44.1149 682.714 44.4279 683.048 44.7739 683.349C45.2599 683.774 45.6729 684.114 46.1799 684.314C46.8549 684.579 47.6169 684.699 48.4959 684.661C49.2969 684.631 50.0489 684.414 50.7309 684.014C52.0829 683.222 52.9539 682.003 53.3209 680.392C53.4869 679.662 53.5949 678.914 53.6849 678.215C53.7549 677.689 53.8109 677.164 53.8669 676.637L53.9089 676.244C53.9239 676.098 53.9369 675.952 53.9499 675.806C53.9709 675.553 53.9929 675.3 54.0299 675.049C54.0689 674.779 53.9399 674.551 53.6999 674.468C53.5799 674.427 53.4239 674.444 53.2959 674.518C53.1969 674.575 53.1299 674.655 53.1159 674.738C53.0159 675.248 52.9219 675.76 52.8279 676.271L52.5099 677.991C52.4819 678.264 52.3039 678.369 52.2009 678.407C52.0159 678.471 51.8119 678.425 51.6189 678.275C51.4239 678.125 51.3259 677.939 51.3419 677.75L51.5939 674.763C51.6469 674.159 51.6989 673.553 51.7419 672.948C51.7649 672.624 51.5479 672.389 51.1889 672.352C50.9229 672.329 50.6439 672.552 50.5949 672.849C50.5849 672.912 50.5789 672.974 50.5729 673.036L50.2959 675.534C50.2519 675.934 50.2079 676.337 50.1619 676.739C50.1439 676.883 50.1199 677.079 49.9399 677.208C49.7619 677.336 49.5799 677.301 49.4159 677.267C49.0689 677.196 48.9609 676.935 48.9739 676.714C48.9839 676.558 48.9889 676.403 48.9929 676.249L49.0469 674.782C49.0829 673.829 49.1189 672.877 49.1509 671.924C49.1629 671.594 48.9189 671.358 48.5439 671.334C48.2649 671.324 47.9789 671.564 47.9509 671.854C47.9389 671.989 47.9309 672.124 47.9239 672.26L47.6419 676.59C47.6179 677.13 47.3189 677.198 47.0619 677.205L46.9589 677.206C46.8259 677.234 46.6889 677.166 46.6089 677.1C46.4909 677.004 46.4299 676.865 46.4249 676.688C46.4049 675.82 46.3799 674.952 46.3549 674.085L46.3199 672.882C46.3139 672.605 46.0489 672.372 45.7399 672.372H45.7339C45.2919 672.378 45.0489 672.622 45.0499 673.064C45.0529 673.744 45.0519 674.424 45.0519 675.105V675.798C45.0839 675.853 45.1019 675.914 45.1019 675.978V676.752C45.1019 677.524 45.1019 678.295 45.1049 679.066C45.1059 679.202 45.0649 679.526 44.6549 679.616C44.4849 679.682 44.3469 679.649 44.2599 679.608C44.1559 679.558 44.0339 679.4 43.9979 679.29L43.7549 678.679C43.5509 678.167 43.3459 677.654 43.1579 677.136C43.0919 676.956 42.7949 676.656 42.3989 676.778C42.0699 676.882 41.8939 677.207 41.9799 677.552C42.1739 678.319 42.3699 679.088 42.5949 679.845C42.6599 680.066 42.5349 680.298 42.3149 680.364C42.0889 680.428 41.8609 680.303 41.7959 680.083C41.5669 679.313 41.3689 678.534 41.1729 677.755C40.9779 676.981 41.3969 676.219 42.1489 675.984C42.9639 675.724 43.7139 676.232 43.9409 676.851C44.0459 677.141 44.1559 677.427 44.2679 677.711V676.16C44.2359 676.106 44.2179 676.045 44.2179 675.98V675.105C44.2179 674.426 44.2189 673.747 44.2169 673.068C44.2139 672.164 44.8199 671.55 45.7249 671.54H45.7389C46.3549 671.54 46.8859 671.925 47.0779 672.457L47.0909 672.217C47.0989 672.07 47.1079 671.922 47.1209 671.775C47.1909 671.039 47.8739 670.452 48.5989 670.504C49.4289 670.556 50.0119 671.167 49.9839 671.954L49.9759 672.181C50.2529 671.744 50.7489 671.465 51.2759 671.525C52.0819 671.609 52.6279 672.232 52.5739 673.007C52.5469 673.389 52.5159 673.771 52.4839 674.153C52.5839 674.012 52.7189 673.89 52.8799 673.797C53.2159 673.603 53.6269 673.561 53.9739 673.681C54.5889 673.896 54.9509 674.509 54.8549 675.171C54.8209 675.405 54.7999 675.641 54.7799 675.878C54.7669 676.03 54.7539 676.182 54.7379 676.334L54.6949 676.727C54.6389 677.26 54.5809 677.792 54.5119 678.324C54.4179 679.043 54.3069 679.814 54.1319 680.578C53.7139 682.421 52.7119 683.82 51.1519 684.735C50.3499 685.205 49.4669 685.46 48.5269 685.495C48.4199 685.499 48.3139 685.501 48.2089 685.501" fill="#4D4D4D"/>
<defs>
<filter id="filter0_d" x="0" y="0" width="670" height="1440" filterUnits="userSpaceOnUse" color-interpolation-filters="sRGB">
<feFlood flood-opacity="0" result="BackgroundImageFix"/>
<feColorMatrix in="SourceAlpha" type="matrix" values="0 0 0 0 0 0 0 0 0 0 0 0 0 0 0 0 0 0 127 0"/>
<feOffset dy="3"/>
<feGaussianBlur stdDeviation="2.5"/>
<feColorMatrix type="matrix" values="0 0 0 0 0.301961 0 0 0 0 0.301961 0 0 0 0 0.301961 0 0 0 0.5 0"/>
<feBlend mode="normal" in2="BackgroundImageFix" result="effect1_dropShadow"/>
<feBlend mode="normal" in="SourceGraphic" in2="effect1_dropShadow" result="shape"/>
</filter>
</defs>
</svg>
