<svg width="56" height="72" viewBox="0 0 56 72" fill="none" xmlns="http://www.w3.org/2000/svg">
<path d="M20.0703 71H18.3477V66.5771H13.8975V71H12.168V61.0469H13.8975V65.1895H18.3477V61.0469H20.0703V71ZM21.6494 67.2334C21.6494 66.5088 21.793 65.8571 22.0801 65.2783C22.3672 64.695 22.7705 64.2484 23.29 63.9385C23.8096 63.624 24.4066 63.4668 25.0811 63.4668C26.0791 63.4668 26.888 63.7881 27.5078 64.4307C28.1322 65.0732 28.4694 65.9255 28.5195 66.9873L28.5264 67.377C28.5264 68.1061 28.3851 68.7578 28.1025 69.332C27.8245 69.9062 27.4235 70.3506 26.8994 70.665C26.3799 70.9795 25.7783 71.1367 25.0947 71.1367C24.0511 71.1367 23.2148 70.7904 22.5859 70.0977C21.9616 69.4004 21.6494 68.473 21.6494 67.3154V67.2334ZM23.3105 67.377C23.3105 68.138 23.4678 68.735 23.7822 69.168C24.0967 69.5964 24.5342 69.8105 25.0947 69.8105C25.6553 69.8105 26.0905 69.5918 26.4004 69.1543C26.7148 68.7168 26.8721 68.0765 26.8721 67.2334C26.8721 66.486 26.7103 65.8936 26.3867 65.4561C26.0677 65.0186 25.6325 64.7998 25.0811 64.7998C24.5387 64.7998 24.1081 65.0163 23.7891 65.4492C23.4701 65.8776 23.3105 66.5202 23.3105 67.377ZM32.0127 61.8057V63.6035H33.3184V64.834H32.0127V68.9629C32.0127 69.2454 32.0674 69.4505 32.1768 69.5781C32.2907 69.7012 32.4912 69.7627 32.7783 69.7627C32.9697 69.7627 33.1634 69.7399 33.3594 69.6943V70.9795C32.9811 71.0843 32.6165 71.1367 32.2656 71.1367C30.9896 71.1367 30.3516 70.4326 30.3516 69.0244V64.834H29.1348V63.6035H30.3516V61.8057H32.0127ZM37.8506 71.1367C36.7979 71.1367 35.9434 70.8063 35.2871 70.1455C34.6354 69.4801 34.3096 68.596 34.3096 67.4932V67.2881C34.3096 66.5498 34.4508 65.8913 34.7334 65.3125C35.0205 64.7292 35.4215 64.2757 35.9365 63.9521C36.4515 63.6286 37.0257 63.4668 37.6592 63.4668C38.6663 63.4668 39.4434 63.7881 39.9902 64.4307C40.5417 65.0732 40.8174 65.9824 40.8174 67.1582V67.8281H35.9844C36.0345 68.4388 36.2373 68.9219 36.5928 69.2773C36.9528 69.6328 37.404 69.8105 37.9463 69.8105C38.7074 69.8105 39.3271 69.5029 39.8057 68.8877L40.7012 69.7422C40.4049 70.1842 40.0085 70.5283 39.5117 70.7744C39.0195 71.016 38.4658 71.1367 37.8506 71.1367ZM37.6523 64.7998C37.1966 64.7998 36.8275 64.9593 36.5449 65.2783C36.2669 65.5973 36.0892 66.0417 36.0117 66.6113H39.1768V66.4883C39.1403 65.9323 38.9922 65.513 38.7324 65.2305C38.4727 64.9434 38.1126 64.7998 37.6523 64.7998ZM43.8799 71H42.2188V60.5H43.8799V71Z" fill="black"/>
<path d="M56 28C56 12.5358 43.4642 0 28 0C12.5347 0 0 12.5358 0 28C0 43.4642 12.5347 56 28 56C43.4642 56 56 43.4642 56 28Z" fill="#1C476E"/>
<path d="M37.149 10.7053C37.604 10.7053 37.9727 11.0752 37.9727 11.529V15.8107H39.6177C40.0715 15.8107 40.4402 16.1782 40.4402 16.6343V44.471C40.4402 44.8875 40.1299 45.2328 39.7285 45.2877L39.6165 45.2947H24.5829C24.3554 45.2947 24.1489 45.2013 23.9995 45.0532L23.9295 44.975C23.8234 44.835 23.7592 44.66 23.7592 44.471V34.5613C23.7592 34.1063 24.1279 33.7388 24.5829 33.7388H31.4172C31.8734 33.7388 32.2409 34.1052 32.2409 34.5613V43.6462H38.7929V17.458H17.2084V43.6473H20.1099C20.566 43.6473 20.9335 44.016 20.9335 44.471C20.9335 44.926 20.566 45.2947 20.1099 45.2947H16.3847C15.9285 45.2947 15.561 44.926 15.561 44.471V16.6343C15.561 16.1782 15.9285 15.8107 16.3847 15.8107H18.0274V11.529C18.0274 11.074 18.396 10.7053 18.8522 10.7053H37.1502H37.149ZM30.5947 35.385H25.4054V43.6485H30.5947V35.385ZM20.895 26.5055C22.3464 26.5055 23.5259 27.6862 23.5259 29.1375V31.1792C23.5259 31.5187 23.2482 31.7963 22.9075 31.7963H18.8825C18.5419 31.7963 18.2642 31.5187 18.2642 31.178V29.1375C18.2642 27.6862 19.4437 26.5055 20.895 26.5055ZM28 26.5055C29.4525 26.5055 30.6297 27.6862 30.6297 29.1375V31.1792C30.6297 31.5187 30.3532 31.7963 30.0114 31.7963H25.9864C25.6457 31.7963 25.368 31.5187 25.368 31.178V29.1375C25.368 27.6862 26.5499 26.5055 28.0012 26.5055H28ZM35.105 26.5055C36.5564 26.5055 37.7359 27.6862 37.7359 29.1375V31.1792C37.7359 31.5187 37.4594 31.7963 37.1175 31.7963H33.0925C32.7519 31.7963 32.4742 31.5187 32.4742 31.178V29.1375C32.4742 27.6862 33.6549 26.5055 35.105 26.5055ZM20.895 27.741C20.125 27.741 19.4997 28.3663 19.4997 29.1375V30.5608H22.2904V29.1375C22.2904 28.3675 21.6639 27.741 20.895 27.741ZM28 27.741C27.23 27.741 26.6047 28.3663 26.6047 29.1375V30.5608H29.3942V29.1375C29.3942 28.3675 28.7689 27.741 28.0012 27.741H28ZM35.105 27.741C34.3362 27.741 33.7109 28.3663 33.7109 29.1375V30.5608H36.5004V29.1375C36.5004 28.3675 35.875 27.741 35.105 27.741ZM20.895 19.2827C22.3464 19.2827 23.5259 20.461 23.5259 21.9123V23.954C23.5259 24.2958 23.2482 24.5723 22.9075 24.5723H18.8825C18.5419 24.5723 18.2642 24.2958 18.2642 23.954V21.9123C18.2642 20.461 19.4437 19.2815 20.895 19.2815V19.2827ZM28 19.2827C29.4525 19.2827 30.6297 20.461 30.6297 21.9123V23.954C30.6297 24.2958 30.3532 24.5723 30.0114 24.5723H25.9864C25.6457 24.5723 25.368 24.2958 25.368 23.954V21.9123C25.368 20.461 26.5499 19.2815 28.0012 19.2815L28 19.2827ZM35.105 19.2827C36.5564 19.2827 37.7359 20.461 37.7359 21.9123V23.954C37.7359 24.2958 37.4594 24.5723 37.1175 24.5723H33.0925C32.7519 24.5723 32.4742 24.2958 32.4742 23.954V21.9123C32.4742 20.461 33.6549 19.2815 35.105 19.2815V19.2827ZM20.895 20.517C20.125 20.517 19.4997 21.1435 19.4997 21.9123V23.3368H22.2904V21.9123C22.2904 21.1423 21.6639 20.517 20.895 20.517ZM28 20.517C27.23 20.517 26.6047 21.1435 26.6047 21.9123V23.3368H29.3942V21.9123C29.3942 21.1423 28.7689 20.517 28.0012 20.517H28ZM35.105 20.517C34.3362 20.517 33.7109 21.1435 33.7109 21.9123V23.3368H36.5004V21.9123C36.5004 21.1423 35.875 20.517 35.105 20.517ZM36.3254 12.3538H19.6747V15.8118H36.3254V12.3538Z" fill="white"/>
</svg>
