<svg width="56" height="56" viewBox="0 0 56 56" fill="none" xmlns="http://www.w3.org/2000/svg">
<path opacity="0.8" d="M56 28C56 12.5354 43.4646 0 28 0C12.5354 0 0 12.5354 0 28C0 43.4646 12.5354 56 28 56C43.4646 56 56 43.4646 56 28Z" fill="white"/>
<path d="M33.4318 14.3359C35.1743 14.3359 36.5915 15.7553 36.5915 17.4956V34.0329C36.5915 35.7753 35.1743 37.1926 33.4318 37.1926H21.0515L21.0537 38.5279C21.0537 39.3486 21.7214 40.0141 22.542 40.0141H39.1287C39.9472 40.0141 40.6149 39.3486 40.6149 38.5279V21.9412C40.6149 21.1227 39.9472 20.455 39.1287 20.455H38.1832C37.7266 20.455 37.3604 20.0867 37.3604 19.6322C37.3604 19.1756 37.7266 18.8073 38.1832 18.8073H39.1287C40.8561 18.8073 42.2626 20.2138 42.2626 21.9412V38.5279C42.2626 40.2553 40.8561 41.6639 39.1287 41.6639H22.5441C20.8146 41.6639 19.406 40.2553 19.406 38.5279V37.1926H16.8968C15.1543 37.1926 13.7371 35.7753 13.7371 34.0329V17.4956C13.7371 15.7553 15.1543 14.3359 16.8968 14.3359H33.4318ZM33.4318 15.9836H16.8968C16.0632 15.9836 15.3848 16.6621 15.3848 17.4956V34.0329C15.3848 34.8664 16.0632 35.5449 16.8968 35.5449H33.4318C34.2654 35.5449 34.946 34.8664 34.946 34.0329V17.4956C34.946 16.6621 34.2654 15.9836 33.4318 15.9836Z" fill="#E53E51"/>
</svg>
