<svg width="24" height="24" viewBox="0 0 20 20" fill="none" xmlns="http://www.w3.org/2000/svg">
<path opacity="0.2" fill-rule="evenodd" clip-rule="evenodd" d="M0 0H20V20H0V0Z" fill="white" fill-opacity="0.01"/>
<path d="M9.92082 2.32312C14.1542 2.32312 17.5983 5.76731 17.5983 9.99984C17.5983 14.2332 14.1542 17.6774 9.92082 17.6774C5.68748 17.6774 2.24414 14.2332 2.24414 9.99984C2.24414 5.76648 5.68748 2.32312 9.92082 2.32312ZM9.92082 3.15646C6.14748 3.15646 3.07747 6.22648 3.07747 9.99984C3.07747 13.7732 6.14748 16.8441 9.92082 16.8441C13.695 16.8441 16.765 13.7732 16.765 9.99984C16.765 6.22648 13.695 3.15646 9.92082 3.15646ZM9.92082 5.49731C10.1508 5.49731 10.3375 5.68398 10.3375 5.91398L10.3366 7.25566L10.4725 7.25982C11.0258 7.29149 11.47 7.46233 11.7675 7.75983C12.0233 8.01483 12.1533 8.33483 12.1533 8.71067V8.72733C12.1533 9.26984 11.9133 9.67401 11.4192 9.95818C12.1308 10.2257 12.4633 10.659 12.4633 11.3174V11.334C12.4633 12.3149 11.6783 12.9007 10.3633 12.9007H10.3366V14.0857C10.3366 14.3157 10.1508 14.5024 9.91998 14.5024C9.69082 14.5024 9.50332 14.3157 9.50332 14.0857V12.8999H7.78915C7.76581 12.8999 7.74748 12.8807 7.74748 12.8582V7.29566C7.74748 7.27316 7.76581 7.25482 7.78915 7.25482H9.50332V5.91315C9.50332 5.68398 9.69082 5.49648 9.91998 5.49648L9.92082 5.49731ZM9.50332 10.5082H8.79248V11.9507H9.50332V10.5082ZM10.3366 10.5082V11.9499L10.3725 11.9507C11.0275 11.9507 11.4033 11.6882 11.4033 11.2299V11.2132C11.4033 10.6448 10.8308 10.514 10.3366 10.5082ZM9.50332 8.20316H8.79248V9.59901H9.50332V8.20316ZM10.3383 8.2115L10.3375 9.58401C10.8208 9.52317 11.0933 9.27567 11.0933 8.88567V8.869C11.0933 8.49067 10.82 8.2565 10.3383 8.21066V8.2115Z" fill="#4D4D4D"/>
</svg>
