<svg width="56" height="72" viewBox="0 0 56 72" fill="none" xmlns="http://www.w3.org/2000/svg">
<path d="M23.4268 62.4414H20.3232V71H18.6074V62.4414H15.5312V61.0469H23.4268V62.4414ZM27.8496 71C27.7767 70.8587 27.7129 70.6286 27.6582 70.3096C27.1296 70.861 26.4824 71.1367 25.7168 71.1367C24.974 71.1367 24.3678 70.9248 23.8984 70.501C23.429 70.0771 23.1943 69.5531 23.1943 68.9287C23.1943 68.1403 23.486 67.5365 24.0693 67.1172C24.6572 66.6934 25.4958 66.4814 26.585 66.4814H27.6035V65.9961C27.6035 65.6133 27.4964 65.3079 27.2822 65.0801C27.068 64.8477 26.7422 64.7314 26.3047 64.7314C25.9264 64.7314 25.6165 64.8271 25.375 65.0186C25.1335 65.2054 25.0127 65.4447 25.0127 65.7363H23.3516C23.3516 65.3307 23.486 64.9525 23.7549 64.6016C24.0238 64.2461 24.3883 63.9681 24.8486 63.7676C25.3135 63.5671 25.8307 63.4668 26.4004 63.4668C27.2663 63.4668 27.9567 63.6855 28.4717 64.123C28.9867 64.556 29.251 65.1667 29.2646 65.9551V69.291C29.2646 69.9564 29.3581 70.4873 29.5449 70.8838V71H27.8496ZM26.0244 69.8037C26.3525 69.8037 26.6602 69.724 26.9473 69.5645C27.2389 69.4049 27.4577 69.1908 27.6035 68.9219V67.5273H26.708C26.0928 67.5273 25.6302 67.6344 25.3203 67.8486C25.0104 68.0628 24.8555 68.3659 24.8555 68.7578C24.8555 69.0768 24.9603 69.332 25.1699 69.5234C25.3841 69.7103 25.6689 69.8037 26.0244 69.8037ZM33.6602 66.0371L35.0684 63.6035H36.9141L34.6514 67.2471L36.9893 71H35.1572L33.6807 68.4707L32.2109 71H30.3652L32.7031 67.2471L30.4473 63.6035H32.2793L33.6602 66.0371ZM39.8125 71H38.1514V63.6035H39.8125V71ZM38.0488 61.6826C38.0488 61.4274 38.1286 61.2155 38.2881 61.0469C38.4521 60.8783 38.6846 60.7939 38.9854 60.7939C39.2861 60.7939 39.5186 60.8783 39.6826 61.0469C39.8467 61.2155 39.9287 61.4274 39.9287 61.6826C39.9287 61.9333 39.8467 62.1429 39.6826 62.3115C39.5186 62.4756 39.2861 62.5576 38.9854 62.5576C38.6846 62.5576 38.4521 62.4756 38.2881 62.3115C38.1286 62.1429 38.0488 61.9333 38.0488 61.6826Z" fill="black"/>
<path fill-rule="evenodd" clip-rule="evenodd" d="M56 28C56 12.535 43.464 0 28 0C12.536 0 0 12.535 0 28C0 43.464 12.536 56 28 56C43.464 56 56 43.464 56 28Z" fill="#1C476E"/>
<path fill-rule="evenodd" clip-rule="evenodd" d="M19.66 37.875C19.66 39.215 18.573 40.303 17.232 40.303C15.892 40.303 14.804 39.215 14.804 37.875V36.095H19.66V37.875V37.875ZM41.14 37.875C41.14 39.215 40.052 40.303 38.711 40.303C37.371 40.303 36.285 39.215 36.285 37.875V36.095H41.139V37.875H41.14ZM41.14 28.163V24.959C41.14 24.505 40.77 24.136 40.316 24.136H15.628C15.173 24.136 14.804 24.505 14.804 24.959V35.991H41.14V32.985V28.163ZM39.658 24.136L36.199 17.08C35.784 16.235 34.926 15.698 33.984 15.698H21.962C21.02 15.698 20.158 16.235 19.743 17.08L16.286 24.136H39.658ZM14.804 28.163H16.456H18.106H19.758H14.804ZM36.187 28.163H37.837H39.489H41.14H36.187ZM25.545 13.918C25.545 12.578 26.631 11.491 27.973 11.491C29.312 11.491 30.399 12.578 30.399 13.918V15.698H25.545V13.918Z" stroke="#FEFEFE" stroke-width="1.5" stroke-linecap="round" stroke-linejoin="round"/>
<path fill-rule="evenodd" clip-rule="evenodd" d="M23.5681 35.992H32.3761V32.233H23.5681V35.992Z" stroke="#FEFEFE" stroke-width="1.5" stroke-linecap="round" stroke-linejoin="round"/>
</svg>
