<svg width="24" height="24" viewBox="0 0 24 24" fill="none" xmlns="http://www.w3.org/2000/svg">
<path opacity="0.2" fill-rule="evenodd" clip-rule="evenodd" d="M0 0H24V24H0V0Z" fill="white" fill-opacity="0.01"/>
<path d="M12.0001 2.78699C17.0801 2.78699 21.2121 6.91999 21.2121 12C21.2121 17.08 17.0791 21.213 12.0001 21.213C6.92011 21.213 2.78711 17.08 2.78711 12C2.78711 6.91999 6.92011 2.78699 12.0001 2.78699ZM12.0001 3.78699C7.47211 3.78699 3.78711 7.47199 3.78711 12C3.78711 16.528 7.47211 20.213 12.0001 20.213C16.5281 20.213 20.2121 16.528 20.2121 12C20.2121 7.47199 16.5281 3.78699 12.0001 3.78699ZM12.0001 6.59699C12.2771 6.59699 12.5001 6.82099 12.5001 7.09699V11.5H15.7611C16.0371 11.5 16.2611 11.724 16.2611 12C16.2611 12.276 16.0371 12.5 15.7611 12.5H12.0011C11.7241 12.5 11.5011 12.276 11.5011 12V7.09799C11.5011 6.82099 11.7241 6.59799 12.0011 6.59799L12.0001 6.59699Z" fill="#4D4D4D"/>
</svg>
