<svg width="56" height="72" viewBox="0 0 56 72" fill="none" xmlns="http://www.w3.org/2000/svg">
<path d="M21.54 68.5391L23.0713 61.0469H24.7871L22.4902 71H20.8359L18.9424 63.7334L17.0078 71H15.3467L13.0498 61.0469H14.7656L16.3105 68.5254L18.2109 61.0469H19.6602L21.54 68.5391ZM30.0781 71C30.0052 70.8587 29.9414 70.6286 29.8867 70.3096C29.3581 70.861 28.7109 71.1367 27.9453 71.1367C27.2025 71.1367 26.5964 70.9248 26.127 70.501C25.6576 70.0771 25.4229 69.5531 25.4229 68.9287C25.4229 68.1403 25.7145 67.5365 26.2979 67.1172C26.8857 66.6934 27.7243 66.4814 28.8135 66.4814H29.832V65.9961C29.832 65.6133 29.7249 65.3079 29.5107 65.0801C29.2965 64.8477 28.9707 64.7314 28.5332 64.7314C28.1549 64.7314 27.8451 64.8271 27.6035 65.0186C27.362 65.2054 27.2412 65.4447 27.2412 65.7363H25.5801C25.5801 65.3307 25.7145 64.9525 25.9834 64.6016C26.2523 64.2461 26.6169 63.9681 27.0771 63.7676C27.542 63.5671 28.0592 63.4668 28.6289 63.4668C29.4948 63.4668 30.1852 63.6855 30.7002 64.123C31.2152 64.556 31.4795 65.1667 31.4932 65.9551V69.291C31.4932 69.9564 31.5866 70.4873 31.7734 70.8838V71H30.0781ZM28.2529 69.8037C28.5811 69.8037 28.8887 69.724 29.1758 69.5645C29.4674 69.4049 29.6862 69.1908 29.832 68.9219V67.5273H28.9365C28.3213 67.5273 27.8587 67.6344 27.5488 67.8486C27.2389 68.0628 27.084 68.3659 27.084 68.7578C27.084 69.0768 27.1888 69.332 27.3984 69.5234C27.6126 69.7103 27.8975 69.8037 28.2529 69.8037ZM35 71H33.3389V60.5H35V71ZM39.2178 67.8281L38.4795 68.5869V71H36.8184V60.5H38.4795V66.5566L38.999 65.9072L41.043 63.6035H43.0391L40.291 66.6865L43.333 71H41.4121L39.2178 67.8281Z" fill="black"/>
<path d="M56 28C56 12.5358 43.4642 0 28 0C12.5347 0 0 12.5358 0 28C0 43.4642 12.5347 56 28 56C43.4642 56 56 43.4642 56 28Z" fill="#1C476E"/>
<path d="M20.9835 39.1498C21.4385 39.1498 21.8072 39.5185 21.8072 39.9735C21.8072 40.4285 21.4385 40.7971 20.9835 40.7971H13.1774C12.7212 40.7971 12.3537 40.4285 12.3537 39.9735C12.3537 39.5185 12.7212 39.1498 13.1774 39.1498H20.9835ZM22.7884 14.609C23.185 14.7256 23.7054 15.0488 23.9399 15.9238C24.0554 16.3391 24.2257 16.6121 24.4847 16.7766C24.6165 16.8641 24.7414 16.9271 24.8522 16.9645C25.5989 17.2095 26.3934 17.4521 27.1797 17.4521H27.2077C27.931 17.4475 28.6135 17.1768 29.4162 16.7743C29.5375 16.7125 29.653 16.646 29.772 16.5806C30.4557 16.1945 31.2899 16.3065 31.802 16.8443L32.2255 17.2911C32.8497 17.9468 33.4739 18.6036 34.049 19.3001C35.757 21.3628 37.8652 23.1501 40.685 24.9305C43.275 26.565 44.5059 29.0371 44.2434 32.0716C44.1524 33.096 43.9214 34.2008 43.5597 35.3546C43.0779 36.8806 41.6767 37.828 40.0492 37.828C39.7342 37.828 39.4087 37.793 39.082 37.7195C36.716 37.1875 34.3489 36.6671 31.9794 36.1468L18.684 33.2185C17.8242 33.0283 17.158 32.6841 16.6517 32.1673C15.7125 31.213 15.3567 30.0568 15.6215 28.8201L15.814 27.9335C15.8607 27.7188 15.989 27.5321 16.1757 27.4143C16.36 27.2976 16.5875 27.2568 16.7964 27.3035L42.463 32.9618C42.526 32.6071 42.5727 32.2618 42.603 31.9281C42.8119 29.5131 41.8692 27.6266 39.8054 26.3223C39.4145 26.075 39.0342 25.8265 38.6644 25.5756L35.1294 27.8331C34.6125 28.1621 33.9254 28.0105 33.5964 27.4948C33.2674 26.9791 33.4167 26.2931 33.9347 25.9618L36.7382 24.1686C36.2284 23.7661 35.743 23.3578 35.2799 22.9425L32.1427 24.9468C31.6259 25.277 30.941 25.1253 30.6109 24.6085C30.2795 24.0928 30.4312 23.4056 30.9492 23.0766L33.657 21.3465C33.3537 21.0186 33.062 20.6861 32.782 20.3478C32.229 19.6828 31.6294 19.0528 31.032 18.4263L30.605 17.9783C30.4394 18.095 30.297 18.1743 30.1535 18.2466C29.2844 18.6841 28.3242 19.0913 27.2205 19.0995H27.1797C26.146 19.0995 25.2092 18.8183 24.3354 18.5278C24.088 18.4461 23.836 18.3225 23.5875 18.1568C22.9797 17.7671 22.5737 17.1756 22.3509 16.3555C22.31 16.205 22.2727 16.1595 22.2727 16.1595C21.7944 16.0323 21.2017 16.1116 20.7059 16.4045C20.2217 16.6903 19.8799 17.1476 19.7644 17.661C19.2604 19.9208 18.7564 22.183 18.2594 24.4463C18.1637 24.8896 17.732 25.172 17.2794 25.0728C16.8337 24.9748 16.5525 24.535 16.6517 24.0916C17.1475 21.8283 17.6515 19.565 18.1567 17.3016C18.3714 16.345 18.9967 15.5003 19.8717 14.987C20.7584 14.462 21.82 14.322 22.7884 14.609ZM17.2269 35.8061C17.6819 35.8061 18.0505 36.1748 18.0505 36.6298C18.0505 37.0848 17.6807 37.4535 17.2269 37.4535H13.1762C12.7212 37.4535 12.3525 37.0836 12.3525 36.6298C12.3525 36.1748 12.7224 35.8061 13.1762 35.8061H17.2269ZM17.2502 29.0908L17.2315 29.1666C17.0845 29.8515 17.2782 30.4558 17.8265 31.0111C18.11 31.3028 18.4845 31.486 19.0375 31.6073L32.3329 34.538C34.7047 35.0583 37.0754 35.5763 39.4437 36.1106C40.8239 36.4198 41.728 35.6778 41.9894 34.8576C42.0197 34.7573 42.05 34.6593 42.078 34.5613L17.249 29.0896L17.2502 29.0908Z" fill="white"/>
</svg>
